<svg width="102" height="27" viewBox="0 0 102 27" fill="none" xmlns="http://www.w3.org/2000/svg">
<path d="M3.684 12.072C3.06 12.072 2.46 11.972 1.884 11.772C1.316 11.564 0.876 11.3 0.564 10.98L0.912 10.296C1.208 10.584 1.604 10.828 2.1 11.028C2.604 11.22 3.132 11.316 3.684 11.316C4.212 11.316 4.64 11.252 4.968 11.124C5.304 10.988 5.548 10.808 5.7 10.584C5.86 10.36 5.94 10.112 5.94 9.84C5.94 9.512 5.844 9.248 5.652 9.048C5.468 8.848 5.224 8.692 4.92 8.58C4.616 8.46 4.28 8.356 3.912 8.268C3.544 8.18 3.176 8.088 2.808 7.992C2.44 7.888 2.1 7.752 1.788 7.584C1.484 7.416 1.236 7.196 1.044 6.924C0.86 6.644 0.768 6.28 0.768 5.832C0.768 5.416 0.876 5.036 1.092 4.692C1.316 4.34 1.656 4.06 2.112 3.852C2.568 3.636 3.152 3.528 3.864 3.528C4.336 3.528 4.804 3.596 5.268 3.732C5.732 3.86 6.132 4.04 6.468 4.272L6.168 4.98C5.808 4.74 5.424 4.564 5.016 4.452C4.616 4.34 4.228 4.284 3.852 4.284C3.348 4.284 2.932 4.352 2.604 4.488C2.276 4.624 2.032 4.808 1.872 5.04C1.72 5.264 1.644 5.52 1.644 5.808C1.644 6.136 1.736 6.4 1.92 6.6C2.112 6.8 2.36 6.956 2.664 7.068C2.976 7.18 3.316 7.28 3.684 7.368C4.052 7.456 4.416 7.552 4.776 7.656C5.144 7.76 5.48 7.896 5.784 8.064C6.096 8.224 6.344 8.44 6.528 8.712C6.72 8.984 6.816 9.34 6.816 9.78C6.816 10.188 6.704 10.568 6.48 10.92C6.256 11.264 5.912 11.544 5.448 11.76C4.992 11.968 4.404 12.072 3.684 12.072ZM10.2656 12V4.368H7.31363V3.6H14.1056V4.368H11.1536V12H10.2656ZM15.5243 12V3.6H18.6683C19.3803 3.6 19.9923 3.716 20.5043 3.948C21.0163 4.172 21.4083 4.5 21.6803 4.932C21.9603 5.356 22.1003 5.872 22.1003 6.48C22.1003 7.072 21.9603 7.584 21.6803 8.016C21.4083 8.44 21.0163 8.768 20.5043 9C19.9923 9.224 19.3803 9.336 18.6683 9.336H16.0163L16.4123 8.928V12H15.5243ZM21.2603 12L19.1003 8.952H20.0603L22.2323 12H21.2603ZM16.4123 9L16.0163 8.58H18.6443C19.4843 8.58 20.1203 8.396 20.5523 8.028C20.9923 7.66 21.2122 7.144 21.2122 6.48C21.2122 5.808 20.9923 5.288 20.5523 4.92C20.1203 4.552 19.4843 4.368 18.6443 4.368H16.0163L16.4123 3.948V9ZM22.8521 12L26.6921 3.6H27.5681L31.4081 12H30.4721L26.9441 4.116H27.3041L23.7761 12H22.8521ZM24.3641 9.756L24.6281 9.036H29.5121L29.7761 9.756H24.3641ZM34.0078 12V4.368H31.0558V3.6H37.8478V4.368H34.8958V12H34.0078ZM40.0584 7.356H44.4984V8.112H40.0584V7.356ZM40.1544 11.232H45.2064V12H39.2664V3.6H45.0264V4.368H40.1544V11.232ZM50.9543 12.072C50.3143 12.072 49.7223 11.968 49.1783 11.76C48.6423 11.544 48.1743 11.244 47.7743 10.86C47.3823 10.476 47.0743 10.024 46.8503 9.504C46.6343 8.984 46.5263 8.416 46.5263 7.8C46.5263 7.184 46.6343 6.616 46.8503 6.096C47.0743 5.576 47.3863 5.124 47.7863 4.74C48.1863 4.356 48.6543 4.06 49.1903 3.852C49.7343 3.636 50.3263 3.528 50.9663 3.528C51.6063 3.528 52.1903 3.628 52.7183 3.828C53.2543 4.028 53.7103 4.332 54.0863 4.74L53.5343 5.304C53.1823 4.952 52.7943 4.7 52.3703 4.548C51.9463 4.396 51.4903 4.32 51.0023 4.32C50.4823 4.32 50.0023 4.408 49.5623 4.584C49.1303 4.752 48.7503 4.996 48.4223 5.316C48.1023 5.628 47.8503 5.996 47.6663 6.42C47.4903 6.836 47.4023 7.296 47.4023 7.8C47.4023 8.296 47.4903 8.756 47.6663 9.18C47.8503 9.604 48.1023 9.976 48.4223 10.296C48.7503 10.608 49.1303 10.852 49.5623 11.028C50.0023 11.196 50.4783 11.28 50.9903 11.28C51.4703 11.28 51.9223 11.208 52.3463 11.064C52.7783 10.92 53.1743 10.676 53.5343 10.332L54.0383 11.004C53.6383 11.356 53.1703 11.624 52.6343 11.808C52.0983 11.984 51.5383 12.072 50.9543 12.072ZM53.1863 10.896V7.8H54.0383V11.004L53.1863 10.896ZM56.5516 12V3.6H57.4396V12H56.5516ZM63.8207 12.072C63.1887 12.072 62.6047 11.968 62.0687 11.76C61.5327 11.544 61.0687 11.244 60.6767 10.86C60.2847 10.476 59.9767 10.024 59.7527 9.504C59.5367 8.984 59.4287 8.416 59.4287 7.8C59.4287 7.184 59.5367 6.616 59.7527 6.096C59.9767 5.576 60.2847 5.124 60.6767 4.74C61.0767 4.356 61.5447 4.06 62.0807 3.852C62.6167 3.636 63.2007 3.528 63.8327 3.528C64.4407 3.528 65.0127 3.632 65.5487 3.84C66.0847 4.04 66.5367 4.344 66.9047 4.752L66.3407 5.316C65.9967 4.964 65.6167 4.712 65.2007 4.56C64.7847 4.4 64.3367 4.32 63.8567 4.32C63.3527 4.32 62.8847 4.408 62.4527 4.584C62.0207 4.752 61.6447 4.996 61.3247 5.316C61.0047 5.628 60.7527 5.996 60.5687 6.42C60.3927 6.836 60.3047 7.296 60.3047 7.8C60.3047 8.304 60.3927 8.768 60.5687 9.192C60.7527 9.608 61.0047 9.976 61.3247 10.296C61.6447 10.608 62.0207 10.852 62.4527 11.028C62.8847 11.196 63.3527 11.28 63.8567 11.28C64.3367 11.28 64.7847 11.2 65.2007 11.04C65.6167 10.88 65.9967 10.624 66.3407 10.272L66.9047 10.836C66.5367 11.244 66.0847 11.552 65.5487 11.76C65.0127 11.968 64.4367 12.072 63.8207 12.072Z" fill="white"/>
<path d="M35.028 24.168C34.364 24.168 33.748 24.064 33.18 23.856C32.62 23.64 32.132 23.336 31.716 22.944C31.308 22.552 30.988 22.092 30.756 21.564C30.524 21.028 30.408 20.44 30.408 19.8C30.408 19.16 30.524 18.576 30.756 18.048C30.988 17.512 31.308 17.048 31.716 16.656C32.132 16.264 32.62 15.964 33.18 15.756C33.748 15.54 34.364 15.432 35.028 15.432C35.804 15.432 36.496 15.568 37.104 15.84C37.72 16.112 38.232 16.504 38.64 17.016L37.128 18.384C36.856 18.064 36.556 17.82 36.228 17.652C35.908 17.484 35.548 17.4 35.148 17.4C34.804 17.4 34.488 17.456 34.2 17.568C33.912 17.68 33.664 17.844 33.456 18.06C33.256 18.268 33.096 18.52 32.976 18.816C32.864 19.112 32.808 19.44 32.808 19.8C32.808 20.16 32.864 20.488 32.976 20.784C33.096 21.08 33.256 21.336 33.456 21.552C33.664 21.76 33.912 21.92 34.2 22.032C34.488 22.144 34.804 22.2 35.148 22.2C35.548 22.2 35.908 22.116 36.228 21.948C36.556 21.78 36.856 21.536 37.128 21.216L38.64 22.584C38.232 23.088 37.72 23.48 37.104 23.76C36.496 24.032 35.804 24.168 35.028 24.168ZM39.6994 24V15.6H43.5394C44.3074 15.6 44.9674 15.724 45.5194 15.972C46.0794 16.22 46.5114 16.58 46.8154 17.052C47.1194 17.516 47.2714 18.068 47.2714 18.708C47.2714 19.34 47.1194 19.888 46.8154 20.352C46.5114 20.808 46.0794 21.16 45.5194 21.408C44.9674 21.648 44.3074 21.768 43.5394 21.768H41.0194L42.0754 20.772V24H39.6994ZM44.8954 24L42.8074 20.94H45.3394L47.4394 24H44.8954ZM42.0754 21.024L41.0194 19.932H43.3954C43.8914 19.932 44.2594 19.824 44.4994 19.608C44.7474 19.392 44.8714 19.092 44.8714 18.708C44.8714 18.316 44.7474 18.012 44.4994 17.796C44.2594 17.58 43.8914 17.472 43.3954 17.472H41.0194L42.0754 16.38V21.024ZM50.7662 18.852H54.6662V20.628H50.7662V18.852ZM50.9342 22.164H55.3262V24H48.5822V15.6H55.1702V17.436H50.9342V22.164ZM55.6367 24L59.3447 15.6H61.6847L65.4047 24H62.9327L60.0287 16.764H60.9647L58.0607 24H55.6367ZM57.6647 22.368L58.2767 20.616H62.3807L62.9927 22.368H57.6647ZM67.4444 24V17.484H64.8644V15.6H72.3884V17.484H69.8204V24H67.4444ZM73.2736 24V15.6H75.6496V24H73.2736ZM79.8966 24L76.3086 15.6H78.8766L81.9006 22.872H80.3886L83.4846 15.6H85.8366L82.2366 24H79.8966ZM88.5123 18.852H92.4123V20.628H88.5123V18.852ZM88.6803 22.164H93.0723V24H86.3283V15.6H92.9163V17.436H88.6803V22.164ZM97.3428 24.168C96.6548 24.168 95.9908 24.084 95.3508 23.916C94.7188 23.74 94.2028 23.516 93.8028 23.244L94.5828 21.492C94.9588 21.732 95.3908 21.932 95.8788 22.092C96.3748 22.244 96.8668 22.32 97.3548 22.32C97.6828 22.32 97.9468 22.292 98.1468 22.236C98.3468 22.172 98.4908 22.092 98.5788 21.996C98.6748 21.892 98.7228 21.772 98.7228 21.636C98.7228 21.444 98.6348 21.292 98.4588 21.18C98.2828 21.068 98.0548 20.976 97.7748 20.904C97.4948 20.832 97.1828 20.76 96.8388 20.688C96.5028 20.616 96.1628 20.524 95.8188 20.412C95.4828 20.3 95.1748 20.156 94.8948 19.98C94.6148 19.796 94.3868 19.56 94.2108 19.272C94.0348 18.976 93.9468 18.604 93.9468 18.156C93.9468 17.652 94.0828 17.196 94.3548 16.788C94.6348 16.38 95.0508 16.052 95.6028 15.804C96.1548 15.556 96.8428 15.432 97.6668 15.432C98.2188 15.432 98.7588 15.496 99.2868 15.624C99.8228 15.744 100.299 15.924 100.715 16.164L99.9828 17.928C99.5828 17.712 99.1868 17.552 98.7948 17.448C98.4028 17.336 98.0228 17.28 97.6548 17.28C97.3268 17.28 97.0628 17.316 96.8628 17.388C96.6628 17.452 96.5188 17.54 96.4308 17.652C96.3428 17.764 96.2988 17.892 96.2988 18.036C96.2988 18.22 96.3828 18.368 96.5508 18.48C96.7268 18.584 96.9548 18.672 97.2348 18.744C97.5228 18.808 97.8348 18.876 98.1708 18.948C98.5148 19.02 98.8548 19.112 99.1908 19.224C99.5348 19.328 99.8468 19.472 100.127 19.656C100.407 19.832 100.631 20.068 100.799 20.364C100.975 20.652 101.063 21.016 101.063 21.456C101.063 21.944 100.923 22.396 100.643 22.812C100.371 23.22 99.9588 23.548 99.4068 23.796C98.8628 24.044 98.1748 24.168 97.3428 24.168Z" fill="white"/>
</svg>
