<svg width="1337" height="296" viewBox="0 0 1337 296" fill="none" xmlns="http://www.w3.org/2000/svg">
<path d="M1252.48 54.9732V3.57764H1302.88V54.9732H1284.8V265.414H1270.59V54.9732H1252.48Z" fill="black" fill-opacity="0.1"/>
<path d="M1211.53 265.414H1196.04L1216.16 3.57764H1235.34L1255.46 265.414H1239.97L1225.97 69.548H1225.5L1211.53 265.414ZM1209.46 162.367H1241.83V210.438H1209.46V162.367Z" fill="black" fill-opacity="0.1"/>
<path d="M1122.97 3.57764H1140.82L1155.96 165.691H1156.65L1171.79 3.57764H1189.64V265.414H1175.61V104.579H1175.11L1160.79 263.752H1151.82L1137.5 103.684H1137V265.414H1122.97V3.57764Z" fill="black" fill-opacity="0.1"/>
<path d="M1068.69 265.414V3.57764H1093.32C1097.78 3.57764 1101.63 7.11481 1104.88 14.1892C1108.14 21.1783 1110.65 31.2358 1112.42 44.3617C1114.18 57.4023 1115.07 72.8721 1115.07 90.771C1115.07 108.926 1114.16 124.353 1112.36 137.053C1110.55 149.667 1107.99 159.298 1104.67 165.947C1101.35 172.51 1097.42 175.791 1092.88 175.791H1077.3V125.93H1090.2C1092.38 125.93 1094.19 124.694 1095.65 122.222C1097.12 119.665 1098.24 115.83 1098.99 110.716C1099.75 105.516 1100.13 98.8682 1100.13 90.771C1100.13 82.6739 1099.75 75.9831 1098.99 70.6987C1098.24 65.329 1097.12 61.323 1095.65 58.6808C1094.17 55.9534 1092.36 54.5896 1090.2 54.5896H1083.1V265.414H1068.69ZM1102.26 145.746L1117.1 265.414H1101.38L1086.83 145.746H1102.26Z" fill="black" fill-opacity="0.1"/>
<path d="M1060.27 134.498C1060.27 163.307 1059.01 187.726 1056.49 207.756C1053.97 227.785 1050.55 242.999 1046.24 253.398C1041.95 263.796 1037.14 268.996 1031.8 268.996C1026.44 268.996 1021.62 263.754 1017.33 253.27C1013.04 242.786 1009.64 227.572 1007.11 207.628C1004.61 187.598 1003.36 163.221 1003.36 134.498C1003.36 105.689 1004.61 81.2697 1007.11 61.2399C1009.64 41.2102 1013.04 25.9961 1017.33 15.5977C1021.62 5.19922 1026.44 0 1031.8 0C1037.14 0 1041.95 5.19922 1046.24 15.5977C1050.55 25.9961 1053.97 41.2102 1056.49 61.2399C1059.01 81.2697 1060.27 105.689 1060.27 134.498ZM1045.54 134.498C1045.54 117.451 1044.99 103.047 1043.88 91.2846C1042.8 79.5224 1041.22 70.6156 1039.17 64.564C1037.13 58.5125 1034.67 55.4867 1031.8 55.4867C1028.95 55.4867 1026.49 58.5125 1024.43 64.564C1022.38 70.6156 1020.8 79.5224 1019.69 91.2846C1018.6 103.047 1018.06 117.451 1018.06 134.498C1018.06 151.544 1018.6 165.949 1019.69 177.711C1020.8 189.473 1022.38 198.38 1024.43 204.431C1026.49 210.483 1028.95 213.509 1031.8 213.509C1034.67 213.509 1037.13 210.483 1039.17 204.431C1041.22 198.38 1042.8 189.473 1043.88 177.711C1044.99 165.949 1045.54 151.544 1045.54 134.498Z" fill="black" fill-opacity="0.1"/>
<path d="M956.039 265.414V3.57764H996.74V54.9732H970.45V108.67H994.149V160.193H970.45V265.414H956.039Z" fill="black" fill-opacity="0.1"/>
<path d="M874.448 3.57764H890.548L903.154 113.145H903.678L916.284 3.57764H932.384L910.578 177.964V265.414H896.254V177.964L874.448 3.57764Z" fill="black" fill-opacity="0.1"/>
<path d="M825.777 265.414V3.57764H850.407C854.871 3.57764 858.724 7.11481 861.965 14.1892C865.226 21.1783 867.739 31.2358 869.506 44.3617C871.272 57.4023 872.155 72.8721 872.155 90.771C872.155 108.926 871.252 124.353 869.447 137.053C867.642 149.667 865.08 159.298 861.761 165.947C858.442 172.51 854.512 175.791 849.97 175.791H834.395V125.93H847.292C849.466 125.93 851.28 124.694 852.736 122.222C854.211 119.665 855.327 115.83 856.084 110.716C856.841 105.516 857.22 98.8682 857.22 90.771C857.22 82.6739 856.841 75.9831 856.084 70.6987C855.327 65.329 854.211 61.323 852.736 58.6808C851.261 55.9534 849.446 54.5896 847.292 54.5896H840.188V265.414H825.777ZM859.345 145.746L874.193 265.414H858.472L843.915 145.746H859.345Z" fill="black" fill-opacity="0.1"/>
<path d="M775.178 265.414V3.57764H816.752V54.9732H789.589V108.67H814.627V160.193H789.589V214.018H816.752V265.414H775.178Z" fill="black" fill-opacity="0.1"/>
<path d="M725.466 3.57764L738.8 195.352H739.295L752.629 3.57764H768.758L748.64 265.414H729.454L709.337 3.57764H725.466Z" fill="black" fill-opacity="0.1"/>
<path d="M661.328 265.414V3.57764H702.903V54.9732H675.74V108.67H700.777V160.193H675.74V214.018H702.903V265.414H661.328Z" fill="black" fill-opacity="0.1"/>
<path d="M634.653 3.57764V265.414H622.425L598.697 114.295H598.319V265.414H583.908V3.57764H596.31L619.776 154.44H620.271V3.57764H634.653Z" fill="black" fill-opacity="0.1"/>
<path d="M574.861 3.57764V265.414H560.449V3.57764H574.861Z" fill="black" fill-opacity="0.1"/>
<path d="M478.858 3.57764H494.958L507.564 113.145H508.088L520.694 3.57764H536.794L514.988 177.964V265.414H500.664V177.964L478.858 3.57764Z" fill="black" fill-opacity="0.1"/>
<path d="M424.394 54.9732V3.57764H474.789V54.9732H456.71V265.414H442.502V54.9732H424.394Z" fill="black" fill-opacity="0.1"/>
<path d="M417.297 3.57764V265.414H402.886V3.57764H417.297Z" fill="black" fill-opacity="0.1"/>
<path d="M353.174 3.57764L366.508 195.352H367.003L380.337 3.57764H396.466L376.348 265.414H357.162L337.045 3.57764H353.174Z" fill="black" fill-opacity="0.1"/>
<path d="M330.589 3.57764V265.414H316.178V3.57764H330.589Z" fill="black" fill-opacity="0.1"/>
<path d="M258.744 54.9732V3.57764H309.139V54.9732H291.06V265.414H276.852V54.9732H258.744Z" fill="black" fill-opacity="0.1"/>
<path d="M217.788 265.414H202.3L222.417 3.57764H241.603L261.721 265.414H246.232L232.229 69.548H231.763L217.788 265.414ZM215.721 162.367H248.096V210.438H215.721V162.367Z" fill="black" fill-opacity="0.1"/>
<path d="M154.291 265.414V3.57764H195.865V54.9732H168.702V108.67H193.74V160.193H168.702V214.018H195.865V265.414H154.291Z" fill="black" fill-opacity="0.1"/>
<path d="M100.009 265.414V3.57764H124.639C129.103 3.57764 132.956 7.11481 136.197 14.1892C139.458 21.1783 141.971 31.2358 143.738 44.3617C145.504 57.4023 146.387 72.8721 146.387 90.771C146.387 108.926 145.484 124.353 143.679 137.053C141.874 149.667 139.312 159.298 135.993 165.947C132.674 172.51 128.744 175.791 124.202 175.791H108.626V125.93H121.524C123.698 125.93 125.512 124.694 126.968 122.222C128.443 119.665 129.559 115.83 130.316 110.716C131.073 105.516 131.452 98.8682 131.452 90.771C131.452 82.6739 131.073 75.9831 130.316 70.6987C129.559 65.329 128.443 61.323 126.968 58.6808C125.493 55.9534 123.678 54.5896 121.524 54.5896H114.42V265.414H100.009ZM133.577 145.746L148.425 265.414H132.703L118.147 145.746H133.577Z" fill="black" fill-opacity="0.1"/>
<path d="M91.7629 98.4442H77.206C77.0119 91.8812 76.614 85.9575 76.0124 80.6731C75.4107 75.3886 74.6149 70.8713 73.625 67.121C72.6352 63.3708 71.4609 60.5155 70.1023 58.5551C68.7631 56.5095 67.2783 55.4867 65.6479 55.4867C62.7559 55.4867 60.2618 58.5977 58.1657 64.8197C56.0889 71.0417 54.4876 80.0338 53.3619 91.796C52.2556 103.558 51.7024 117.792 51.7024 134.498C51.7024 151.885 52.2653 166.46 53.391 178.222C54.5362 189.899 56.1374 198.721 58.1948 204.687C60.2716 210.568 62.7268 213.509 65.5605 213.509C67.1521 213.509 68.5981 212.614 69.8985 210.824C71.2183 209.034 72.3731 206.434 73.363 203.025C74.3723 199.531 75.1972 195.312 75.8377 190.368C76.4976 185.339 76.9537 179.671 77.206 173.364L91.7629 173.748C91.5106 185.339 90.7439 196.76 89.4629 208.011C88.2013 219.262 86.4642 229.533 84.2515 238.823C82.0389 248.028 79.341 255.358 76.1579 260.813C72.9942 266.268 69.3647 268.996 65.2694 268.996C59.8737 268.996 55.0408 263.796 50.7708 253.398C46.5202 242.914 43.1624 227.657 40.6974 207.628C38.2325 187.598 37 163.221 37 134.498C37 105.689 38.2519 81.2697 40.7557 61.2399C43.2594 41.2102 46.6463 25.9961 50.9163 15.5977C55.1864 5.19922 59.9707 0 65.2694 0C68.8795 0 72.2179 2.21606 75.2845 6.64819C78.3512 10.9951 81.049 17.3875 83.3781 25.8256C85.7072 34.1785 87.5996 44.449 89.0553 56.6374C90.511 68.8257 91.4135 82.7613 91.7629 98.4442Z" fill="black" fill-opacity="0.1"/>
<rect x="1337" y="17.2354" width="277.8" height="1337" transform="rotate(90 1337 17.2354)" fill="url(#paint0_linear_2175_228)"/>
<defs>
<linearGradient id="paint0_linear_2175_228" x1="1517.64" y1="778.981" x2="1337" y2="778.981" gradientUnits="userSpaceOnUse">
<stop stop-color="#F6F7F9"/>
<stop offset="1" stop-color="#F6F7F9" stop-opacity="0"/>
</linearGradient>
</defs>
</svg>
